<?xml version="1.0" encoding="utf-8"?>
<!-- Generator: Adobe Illustrator 20.1.0, SVG Export Plug-In . SVG Version: 6.00 Build 0)  -->
<svg version="1.1" id="Layer_1" xmlns="http://www.w3.org/2000/svg" xmlns:xlink="http://www.w3.org/1999/xlink" x="0px" y="0px"
	 viewBox="0 0 90 80" style="enable-background:new 0 0 90 80;" xml:space="preserve">
<style type="text/css">
	.st0{fill:#E84343;}
</style>
<g>
	<path class="st0" d="M44.9,80c-14.1,0-28.2,0-42.2,0c-0.3,0-0.7,0-1,0c-1.5-0.1-2.1-1.1-1.3-2.4c1.8-3.2,3.6-6.3,5.4-9.5
		c2.8-4.9,5.6-9.9,8.4-14.9c0.2-0.4,0.3-1.1,0.1-1.5c-0.4-1.5-0.4-3,0.4-4.4c8.5-15,17.1-29.9,25.6-44.9C41.2,0.8,42.4,0,44.2,0
		c1.7,0,3,0.9,3.9,2.4c6.6,11.7,13.2,23.5,19.8,35.2c0.7,1.2,1.1,2.4,0.8,3.8c-0.1,0.4,0.2,0.9,0.4,1.2c6.7,11.5,13.5,23,20.3,34.4
		c0.4,0.7,0.9,1.4,0.4,2.2c-0.5,0.9-1.4,0.7-2.2,0.7C73.4,80,59.2,80,44.9,80z M16.7,54.6c-4.3,7.5-8.5,14.9-12.8,22.5
		c27.5,0,54.7,0,82.1,0c-6.5-11-12.9-21.9-19.3-32.8c-3.2,1-4.6,0.4-6.3-2.3c-0.6-0.9-1.1-1.8-1.7-2.7c-0.5-0.8-1-1.4-2-1.2
		c-1,0.3-1.3,1.1-1.2,2c0,3.2,0.1,6.4,0.1,9.7c0,2-1.5,3.4-3.6,3.5c-2.1,0-3.7-1.4-3.8-3.4c0-1.1,0-2.1,0-3.2c0-1.2-0.6-1.9-1.6-2
		c-1,0-1.6,0.8-1.6,1.9c0,1.8,0,3.6,0,5.3c0,3.1-1.8,5.8-4.7,7c-3,1.2-6.3,0.6-8.5-1.5c-1.5-1.4-2.1-3.2-2.3-5.2
		c-0.2-1.3-1-2-2.1-2.2c-1.2-0.1-2.2,0.4-2.7,1.6c-0.1,0.3-0.3,0.6-0.4,0.9C22.7,55,20.1,55.8,16.7,54.6z M52.7,41.3L52.7,41.3
		c-0.1-0.5-0.1-1.1-0.1-1.6c0.1-2.2,1.3-3.9,3.3-4.4s3.9,0.2,5.1,2.1c0.8,1.3,1.5,2.5,2.4,3.8c0.4,0.6,0.9,1,1.6,0.6
		c0.8-0.4,1.1-1.1,0.8-1.9c-0.1-0.2-0.2-0.4-0.3-0.6C58.8,27.5,52.2,15.7,45.6,4c-0.9-1.5-2-1.5-2.9,0c-8.5,14.9-17,29.8-25.5,44.7
		c-0.6,1-0.5,1.9,0.2,2.7c1.3,1.5,3.6,1.2,4.3-0.7c0.9-2.5,3.5-3.9,5.9-3.6c2.7,0.4,4.4,2.2,4.7,5.1c0,0.3,0.1,0.6,0.2,0.9
		c0.5,2.2,2.8,3.8,5.1,3.5c2.5-0.3,4.4-2.2,4.4-4.6c0-2,0-4,0.1-6c0.1-2.3,1.8-4.1,4.1-4.2c2.4-0.2,4.4,1.4,4.7,3.7
		c0.2,1.3,0,2.6,0.2,3.9c0,0.4,0.5,0.7,0.8,1c0.3-0.3,0.6-0.6,0.8-1c0.1-0.2,0-0.4,0-0.7C52.7,46.2,52.7,43.7,52.7,41.3z"/>
	<path class="st0" d="M19.6,70.2c0,1-0.8,1.9-1.9,1.9s-1.9-0.7-2-1.8c-0.1-1.1,0.8-2,1.9-2C18.7,68.3,19.6,69.2,19.6,70.2z"/>
	<path class="st0" d="M66.9,69.7c1,0,1.9,0.9,1.9,1.9c0,1.1-0.8,1.9-2,1.9c-1.1,0-1.9-0.8-1.8-1.9C65,70.6,65.9,69.7,66.9,69.7z"/>
	<path class="st0" d="M38,70.6c1,0,1.9,0.8,1.9,1.8c0,1.1-0.7,1.9-1.8,2c-1,0.1-1.9-0.7-2-1.8C36.1,71.5,36.9,70.6,38,70.6z"/>
	<path class="st0" d="M47.9,62.2c-1,0-1.9-0.9-1.9-1.9s0.8-1.9,1.9-1.9c1.1,0,1.9,0.8,1.9,1.9C49.7,61.4,48.9,62.2,47.9,62.2z"/>
	<path class="st0" d="M20,58.7c1.1,0,1.9,0.8,1.9,1.9c0,1-0.9,1.9-1.9,1.9c-1.1,0-1.9-0.9-1.9-2C18.1,59.4,18.9,58.7,20,58.7z"/>
	<path class="st0" d="M31.8,71.1c0,1-0.9,1.9-1.9,1.9s-1.9-0.8-2-1.8c-0.1-1.1,0.8-2,1.9-2S31.8,70.1,31.8,71.1z"/>
	<path class="st0" d="M28.5,64.6c0,1-0.8,1.9-1.9,1.9s-1.9-0.8-1.9-1.9s0.7-1.9,1.9-1.9C27.7,62.7,28.5,63.5,28.5,64.6z"/>
	<path class="st0" d="M76.3,66.9c0,1-0.8,1.8-1.9,1.9c-1.1,0-1.9-0.8-1.9-1.8c0-1.1,0.8-1.9,1.9-1.9C75.5,65,76.3,65.9,76.3,66.9z"
		/>
</g>
</svg>
