<?xml version="1.0" encoding="utf-8"?>
<!-- Generator: Adobe Illustrator 20.1.0, SVG Export Plug-In . SVG Version: 6.00 Build 0)  -->
<svg version="1.1" id="Layer_1" xmlns="http://www.w3.org/2000/svg" xmlns:xlink="http://www.w3.org/1999/xlink" x="0px" y="0px"
	 viewBox="0 0 100 49.4" style="enable-background:new 0 0 100 49.4;" xml:space="preserve">
<style type="text/css">
	.st0{fill:#FFFFFF;}
</style>
<g>
	<path class="st0" d="M79.4,43.4c0,3.3,2.7,6,6,6s6-2.7,6-6s-2.7-6-6-6S79.4,40.1,79.4,43.4z M82,43.4c0-1.9,1.5-3.4,3.4-3.4
		s3.4,1.5,3.4,3.4s-1.5,3.4-3.4,3.4S82,45.3,82,43.4z"/>
	<circle class="st0" cx="85.4" cy="43.4" r="1"/>
	<path class="st0" d="M40.2,1.8h6.1c0-1-1.4-1.8-3-1.8C41.6,0,40.2,0.8,40.2,1.8z"/>
	<path class="st0" d="M25.9,1.8H32c0-1-1.4-1.8-3-1.8C27.2,0,25.9,0.8,25.9,1.8z"/>
	<path class="st0" d="M20.3,43.4c0,3.3,2.7,6,6,6s6-2.7,6-6s-2.7-6-6-6C23,37.3,20.3,40.1,20.3,43.4z M23,43.4
		c0-1.9,1.5-3.4,3.4-3.4s3.4,1.5,3.4,3.4s-1.5,3.4-3.4,3.4C24.5,46.8,23,45.3,23,43.4z"/>
	<circle class="st0" cx="26.3" cy="43.4" r="1"/>
	<path class="st0" d="M85.8,4.5c0.1-0.1,0-0.3,0-0.4s-0.9-1.7-3-1.7H3.7C2,2.4,1,3.2,0.9,4.6L85.8,4.5L85.8,4.5z"/>
	<path class="st0" d="M78.8,10.3H63.2v34.4h12.9c0.2,0,0.3-0.1,0.4-0.2l2.3-3.4V41V10.3z M77.2,12.5v8.1H64.9v-8.1
		c0-0.3,0.2-0.5,0.5-0.5h11.2C76.9,12,77.2,12.2,77.2,12.5z M77.2,25.6c0,0.3-0.2,0.5-0.5,0.5s-0.5-0.2-0.5-0.5v-2.1
		c0-0.3,0.2-0.5,0.5-0.5s0.5,0.2,0.5,0.5V25.6z"/>
	<path class="st0" d="M62.3,28.6V9.8c0-0.3,0.2-0.5,0.5-0.5h16.6c0.3,0,0.5,0.2,0.5,0.5v29.8c1.3-1.8,3.3-2.9,5.6-2.9
		c2.4,0,4.7,1.3,5.9,3.4l0,0c0.1,0.1,0.1,0.3,0.2,0.4c0,0,0,0.1,0.1,0.1l0.7,1.3c0.1,0.2,0.3,0.3,0.4,0.3h5v0.3
		c0,0.3,0.2,0.5,0.5,0.5h1.4c0.3,0,0.5-0.2,0.5-0.5v-3.6c0-0.3-0.2-0.5-0.5-0.5h-1.4c-0.1,0-0.1,0-0.1,0v-0.8c0,0,0,0-0.1,0h-0.8
		c-0.1,0-0.2-0.1-0.2-0.2c0-0.1,0.1-0.2,0.2-0.2H98c0,0,0,0,0.1,0v-0.6c0,0,0,0-0.1,0h-0.8c-0.1,0-0.2-0.1-0.2-0.2s0.1-0.2,0.2-0.2
		H98c0,0,0,0,0.1,0v-0.6c0,0,0,0-0.1,0h-0.8c-0.1,0-0.2-0.1-0.2-0.2c0-0.1,0.1-0.2,0.2-0.2H98c0,0,0,0,0.1,0v-0.6c0,0,0,0-0.1,0
		h-0.8c-0.1,0-0.2-0.1-0.2-0.2c0-0.1,0.1-0.2,0.2-0.2H98c0,0,0,0,0.1,0v-0.6c0,0,0,0-0.1,0h-0.8c-0.1,0-0.2-0.1-0.2-0.2
		s0.1-0.2,0.2-0.2H98c0,0,0,0,0.1,0V32c0,0,0,0-0.1,0h-0.8c-0.1,0-0.2-0.1-0.2-0.2s0.1-0.2,0.2-0.2H98c0,0,0,0,0.1,0V31
		c0,0,0,0-0.1,0h-0.8c-0.1,0-0.2-0.1-0.2-0.2s0.1-0.2,0.2-0.2H98c0,0,0,0,0.1,0v-0.5c0-1-0.2-2.2-1.7-3c-0.8-0.4-3.6-1.8-5.4-2.7
		v-1.1c0-0.1-0.1-0.2-0.2-0.2s-0.2,0.1-0.2,0.2v0.8c-0.3-0.1-0.5-0.2-0.6-0.3L85,5.1H0.9v2.4c-0.2,0-0.3,0.2-0.3,0.4v0.6
		c0,0.2,0.1,0.4,0.3,0.4v13.4c-0.2,0.1-0.3,0.2-0.3,0.4v0.5c0,0.2,0.1,0.4,0.3,0.4v4.9h61.4V28.6z M94.2,35.4c0-1.1,0.4-2,0.8-2
		s0.8,0.9,0.8,2s-0.4,2-0.8,2S94.2,36.5,94.2,35.4z M94.1,32.1v-0.5c0-0.1,0.1-0.2,0.2-0.2h1.3c0.1,0,0.2,0.1,0.2,0.2v0.5
		c0,0.1-0.1,0.2-0.2,0.2h-1.3C94.2,32.3,94.1,32.2,94.1,32.1L94.1,32.1z M81.2,9.2c0-0.9,0.7-1.7,1.7-1.7c0.8,0,1.4,0.5,1.6,1.3
		l2.9,12c0,0.1,0.1,0.2,0.1,0.4c0,0.6-0.5,1-1,1h-4.2c-0.6,0-1-0.5-1-1L81.2,9.2z"/>
	<path class="st0" d="M0,41.4V45c0,0.3,0.2,0.5,0.5,0.5h1C1.8,45.5,2,45.3,2,45v-0.3h16.5c0.3,0,0.5-0.2,0.5-0.5v-0.8
		c0-4.3,3.3-7.7,7.5-7.7c4.1,0,7.5,3.5,7.5,7.7v0.8c0,0.3,0.2,0.5,0.5,0.5h27.9V29.6H0.9v7.6c-0.2,0.1-0.3,0.2-0.3,0.4v0.5
		c0,0.2,0.1,0.4,0.3,0.4v2.3H0.5C0.2,40.9,0,41.1,0,41.4z M6.9,38.9c0-0.1,0.1-0.2,0.2-0.2h10.6c0.1,0,0.2,0.1,0.2,0.2
		s-0.1,0.2-0.2,0.2H7.1C7,39.2,6.9,39.1,6.9,38.9z M6.9,37.1c0-0.1,0.1-0.2,0.2-0.2h10.6c0.1,0,0.2,0.1,0.2,0.2s-0.1,0.2-0.2,0.2
		H7.1C7,37.4,6.9,37.3,6.9,37.1z M6.9,35.3c0-0.1,0.1-0.2,0.2-0.2h10.6c0.1,0,0.2,0.1,0.2,0.2c0,0.1-0.1,0.2-0.2,0.2H7.1
		C7,35.5,6.9,35.4,6.9,35.3z"/>
</g>
</svg>
